<?xml version="1.0" encoding="iso-8859-1"?>
<!-- Uploaded to: SVG Repo, www.svgrepo.com, Generator: SVG Repo Mixer Tools -->
<svg version="1.1" id="Layer_1" xmlns="http://www.w3.org/2000/svg" xmlns:xlink="http://www.w3.org/1999/xlink" 
	 viewBox="0 0 512 512" xml:space="preserve">
<path style="fill:#64C1DF;" d="M504.163,348.473H7.837V111.282h188.604c5.768,0,10.449,4.681,10.449,10.449
	c0,58.608,42.099,108.753,99.83,118.899l125.409,22.037c20.825,3.657,38.828,14.545,51.639,29.79
	C496.567,307.702,504.163,327.325,504.163,348.473z"/>
<path style="fill:#F9D85C;" d="M91.073,348.473H7.837v-79.559C48.807,276.825,81.377,308.172,91.073,348.473z"/>
<path style="fill:#FFFFFF;" d="M504.163,348.473H391.837v-92.891l40.291,7.084c20.825,3.657,38.828,14.545,51.639,29.79
	C496.567,307.702,504.163,327.325,504.163,348.473z"/>
<path style="fill:#F9D85C;" d="M152.555,111.282H7.837v36.571h150.379C154.533,136.272,152.555,123.976,152.555,111.282z"/>
<rect x="7.837" y="111.282" style="fill:#FFFFFF;" width="21.42" height="237.192"/>
<path style="fill:#37A0BD;" d="M292.456,237.223l-40.072-7.043c-57.731-10.146-99.83-60.291-99.83-118.899h43.886
	c5.768,0,10.449,4.681,10.449,10.449C206.89,175.397,242.186,221.957,292.456,237.223z"/>
<g>
	<rect x="7.837" y="348.473" style="fill:#FFFFFF;" width="496.327" height="52.245"/>
	<circle style="fill:#FFFFFF;" cx="74.188" cy="218.906" r="29.257"/>
</g>
<path d="M511.665,340.637c-1.622-19.498-9.247-38.154-21.899-53.222c-14.356-17.084-34.344-28.615-56.282-32.467l-125.409-22.037
	c-54.089-9.505-93.348-56.264-93.348-111.18c0-10.082-8.203-18.286-18.286-18.286H0v237.192v7.837v60.082h512v-67.918H511.665z
	 M477.765,297.496c10.281,12.245,16.58,27.33,18.157,43.141h-96.249V264.92l31.099,5.465
	C449.088,273.601,465.778,283.23,477.765,297.496z M384,262.166v78.471H97.053c-11.498-38.415-42.533-68.144-81.38-77.981V155.69
	h136.909c15.411,41.985,52.159,74.074,98.446,82.209l39.587,6.957c4.794,1.434,9.713,2.607,14.749,3.492L384,262.166z
	 M199.053,121.731c0,39.442,17.787,75.184,46.374,98.925c-47.229-11.976-81.4-52.879-84.739-101.537h35.753
	C197.881,119.118,199.053,120.291,199.053,121.731z M144.961,119.118c0.428,7.125,1.433,14.109,2.98,20.898H15.673v-20.898H144.961z
	 M15.673,278.902c30.206,8.973,54.435,32.024,64.911,61.735H15.673V278.902z M15.673,356.31h111.282v36.571H15.673V356.31z
	 M496.327,392.882H142.629v-10.449h274.286v-15.673H142.629V356.31h353.698V392.882z"/>
<path d="M74.188,181.812c-20.454,0-37.094,16.64-37.094,37.094S53.734,256,74.188,256s37.094-16.64,37.094-37.094
	S94.642,181.812,74.188,181.812z M74.188,240.327c-11.812,0-21.42-9.609-21.42-21.42s9.609-21.42,21.42-21.42
	s21.42,9.609,21.42,21.42S85.999,240.327,74.188,240.327z"/>
<rect x="432.588" y="366.759" width="15.673" height="15.673"/>
<circle cx="138.449" cy="179.963" r="7.837"/>
<circle cx="158.96" cy="215.542" r="7.837"/>
<circle cx="190.192" cy="242.197" r="7.837"/>
<circle cx="229.689" cy="257.045" r="7.837"/>
</svg>